AnalogueOS-Regular.ufo
<glyph name="exclam" format="2">
  <advance width="150"/>
  <unicode hex="0021"/>
  <outline>
    <contour>
      <point x="100" y="100" type="line"/>
      <point x="0" y="100" type="line"/>
      <point x="0" y="0" type="line"/>
      <point x="100" y="0" type="line"/>
    </contour>
    <contour>
      <point x="100" y="700" type="line"/>
      <point x="0" y="700" type="line"/>
      <point x="0" y="200" type="line"/>
      <point x="100" y="200" type="line"/>
    </contour>
  </outline>
</glyph>
<glyph name="quotedbl" format="2">
  <advance width="300"/>
  <unicode hex="0022"/>
  <outline>
    <contour>
      <point x="100" y="700" type="line"/>
      <point x="0" y="700" type="line"/>
      <point x="0" y="450" type="line"/>
      <point x="100" y="450" type="line"/>
    </contour>
    <contour>
      <point x="250" y="700" type="line"/>
      <point x="150" y="700" type="line"/>
      <point x="150" y="450" type="line"/>
      <point x="250" y="450" type="line"/>
    </contour>
  </outline>
</glyph>
<glyph name="numbersign" format="2">
  <advance width="550"/>
  <unicode hex="0023"/>
  <outline>
    <contour>
      <point x="300" y="400" type="line"/>
      <point x="300" y="300" type="line"/>
      <point x="200" y="300" type="line"/>
      <point x="200" y="400" type="line"/>
    </contour>
    <contour>
      <point x="100" y="550" type="line"/>
      <point x="100" y="500" type="line"/>
      <point x="0" y="500" type="line"/>
      <point x="0" y="400" type="line"/>
      <point x="100" y="400" type="line"/>
      <point x="100" y="300" type="line"/>
      <point x="0" y="300" type="line"/>
      <point x="0" y="200" type="line"/>
      <point x="100" y="200" type="line"/>
      <point x="100" y="150" type="line"/>
      <point x="50" y="150" type="line"/>
      <point x="50" y="0" type="line"/>
      <point x="150" y="0" type="line"/>
      <point x="150" y="150" type="line"/>
      <point x="200" y="150" type="line"/>
      <point x="200" y="200" type="line"/>
      <point x="300" y="200" type="line"/>
      <point x="300" y="150" type="line"/>
      <point x="250" y="150" type="line"/>
      <point x="250" y="0" type="line"/>
      <point x="350" y="0" type="line"/>
      <point x="350" y="150" type="line"/>
      <point x="400" y="150" type="line"/>
      <point x="400" y="200" type="line"/>
      <point x="500" y="200" type="line"/>
      <point x="500" y="300" type="line"/>
      <point x="400" y="300" type="line"/>
      <point x="400" y="400" type="line"/>
      <point x="500" y="400" type="line"/>
      <point x="500" y="500" type="line"/>
      <point x="400" y="500" type="line"/>
      <point x="400" y="550" type="line"/>
      <point x="450" y="550" type="line"/>
      <point x="450" y="700" type="line"/>
      <point x="350" y="700" type="line"/>
      <point x="350" y="550" type="line"/>
      <point x="300" y="550" type="line"/>
      <point x="300" y="500" type="line"/>
      <point x="200" y="500" type="line"/>
      <point x="200" y="550" type="line"/>
      <point x="250" y="550" type="line"/>
      <point x="250" y="700" type="line"/>
      <point x="150" y="700" type="line"/>
      <point x="150" y="550" type="line"/>
    </contour>
  </outline>
</glyph>
<glyph name="dollar" format="2">
  <advance width="550"/>
  <unicode hex="0024"/>
  <outline>
    <contour>
      <point x="300" y="300" type="line"/>
      <point x="350" y="300" type="line"/>
      <point x="350" y="250" type="line"/>
      <point x="400" y="250" type="line"/>
      <point x="400" y="150" type="line"/>
      <point x="350" y="150" type="line"/>
      <point x="350" y="100" type="line"/>
      <point x="300" y="100" type="line"/>
    </contour>
    <contour>
      <point x="150" y="400" type="line"/>
      <point x="150" y="450" type="line"/>
      <point x="100" y="450" type="line"/>
      <point x="100" y="550" type="line"/>
      <point x="150" y="550" type="line"/>
      <point x="150" y="600" type="line"/>
      <point x="200" y="600" type="line"/>
      <point x="200" y="400" type="line"/>
    </contour>
    <contour>
      <point x="300" y="800" type="line"/>
      <point x="200" y="800" type="line"/>
      <point x="200" y="700" type="line"/>
      <point x="100" y="700" type="line"/>
      <point x="100" y="650" type="line"/>
      <point x="50" y="650" type="line"/>
      <point x="50" y="600" type="line"/>
      <point x="0" y="600" type="line"/>
      <point x="0" y="400" type="line"/>
      <point x="50" y="400" type="line"/>
      <point x="50" y="350" type="line"/>
      <point x="150" y="350" type="line"/>
      <point x="150" y="300" type="line"/>
      <point x="200" y="300" type="line"/>
      <point x="200" y="100" type="line"/>
      <point x="150" y="100" type="line"/>
      <point x="150" y="150" type="line"/>
      <point x="100" y="150" type="line"/>
      <point x="100" y="200" type="line"/>
      <point x="0" y="200" type="line"/>
      <point x="0" y="100" type="line"/>
      <point x="50" y="100" type="line"/>
      <point x="50" y="50" type="line"/>
      <point x="100" y="50" type="line"/>
      <point x="100" y="0" type="line"/>
      <point x="200" y="0" type="line"/>
      <point x="200" y="-100" type="line"/>
      <point x="300" y="-100" type="line"/>
      <point x="300" y="0" type="line"/>
      <point x="400" y="0" type="line"/>
      <point x="400" y="50" type="line"/>
      <point x="450" y="50" type="line"/>
      <point x="450" y="100" type="line"/>
      <point x="500" y="100" type="line"/>
      <point x="500" y="300" type="line"/>
      <point x="450" y="300" type="line"/>
      <point x="450" y="350" type="line"/>
      <point x="350" y="350" type="line"/>
      <point x="350" y="400" type="line"/>
      <point x="300" y="400" type="line"/>
      <point x="300" y="600" type="line"/>
      <point x="350" y="600" type="line"/>
      <point x="350" y="550" type="line"/>
      <point x="400" y="550" type="line"/>
      <point x="400" y="500" type="line"/>
      <point x="500" y="500" type="line"/>
      <point x="500" y="600" type="line"/>
      <point x="450" y="600" type="line"/>
      <point x="450" y="650" type="line"/>
      <point x="400" y="650" type="line"/>
      <point x="400" y="700" type="line"/>
      <point x="300" y="700" type="line"/>
    </contour>
  </outline>
</glyph>
<glyph name="percent" format="2">
  <advance width="750"/>
  <unicode hex="0025"/>
  <outline>
    <contour>
      <point x="600" y="50" type="line"/>
      <point x="500" y="50" type="line"/>
      <point x="500" y="300" type="line"/>
      <point x="600" y="300" type="line"/>
    </contour>
    <contour>
      <point x="200" y="400" type="line"/>
      <point x="100" y="400" type="line"/>
      <point x="100" y="650" type="line"/>
      <point x="200" y="650" type="line"/>
    </contour>
    <contour>
      <point x="300" y="650" type="line"/>
      <point x="250" y="650" type="line"/>
      <point x="250" y="700" type="line"/>
      <point x="50" y="700" type="line"/>
      <point x="50" y="650" type="line"/>
      <point x="0" y="650" type="line"/>
      <point x="0" y="400" type="line"/>
      <point x="50" y="400" type="line"/>
      <point x="50" y="350" type="line"/>
      <point x="250" y="350" type="line"/>
      <point x="250" y="400" type="line"/>
      <point x="300" y="400" type="line"/>
      <point x="300" y="300" type="line"/>
      <point x="250" y="300" type="line"/>
      <point x="250" y="200" type="line"/>
      <point x="200" y="200" type="line"/>
      <point x="200" y="100" type="line"/>
      <point x="150" y="100" type="line"/>
      <point x="150" y="0" type="line"/>
      <point x="250" y="0" type="line"/>
      <point x="250" y="100" type="line"/>
      <point x="300" y="100" type="line"/>
      <point x="300" y="200" type="line"/>
      <point x="350" y="200" type="line"/>
      <point x="350" y="300" type="line"/>
      <point x="400" y="300" type="line"/>
      <point x="400" y="50" type="line"/>
      <point x="450" y="50" type="line"/>
      <point x="450" y="0" type="line"/>
      <point x="650" y="0" type="line"/>
      <point x="650" y="50" type="line"/>
      <point x="700" y="50" type="line"/>
      <point x="700" y="300" type="line"/>
      <point x="650" y="300" type="line"/>
      <point x="650" y="350" type="line"/>
      <point x="450" y="350" type="line"/>
      <point x="450" y="300" type="line"/>
      <point x="400" y="300" type="line"/>
      <point x="400" y="400" type="line"/>
      <point x="450" y="400" type="line"/>
      <point x="450" y="500" type="line"/>
      <point x="500" y="500" type="line"/>
      <point x="500" y="600" type="line"/>
      <point x="550" y="600" type="line"/>
      <point x="550" y="700" type="line"/>
      <point x="450" y="700" type="line"/>
      <point x="450" y="600" type="line"/>
      <point x="400" y="600" type="line"/>
      <point x="400" y="500" type="line"/>
      <point x="350" y="500" type="line"/>
      <point x="350" y="400" type="line"/>
      <point x="300" y="400" type="line"/>
    </contour>
  </outline>
</glyph>
<glyph name="ampersand" format="2">
  <advance width="650"/>
  <unicode hex="0026"/>
  <outline>
    <contour>
      <point x="300" y="550" type="line"/>
      <point x="350" y="550" type="line"/>
      <point x="350" y="450" type="line"/>
      <point x="300" y="450" type="line"/>
      <point x="300" y="400" type="line"/>
      <point x="200" y="400" type="line"/>
      <point x="200" y="450" type="line"/>
      <point x="150" y="450" type="line"/>
      <point x="150" y="550" type="line"/>
      <point x="200" y="550" type="line"/>
      <point x="200" y="600" type="line"/>
      <point x="300" y="600" type="line"/>
    </contour>
    <contour>
      <point x="400" y="100" type="line"/>
      <point x="150" y="100" type="line"/>
      <point x="150" y="150" type="line"/>
      <point x="100" y="150" type="line"/>
      <point x="100" y="250" type="line"/>
      <point x="150" y="250" type="line"/>
      <point x="150" y="300" type="line"/>
      <point x="250" y="300" type="line"/>
      <point x="250" y="250" type="line"/>
      <point x="300" y="250" type="line"/>
      <point x="300" y="200" type="line"/>
      <point x="350" y="200" type="line"/>
      <point x="350" y="150" type="line"/>
      <point x="400" y="150" type="line"/>
    </contour>
    <contour>
      <point x="500" y="200" type="line"/>
      <point x="450" y="200" type="line"/>
      <point x="450" y="250" type="line"/>
      <point x="400" y="250" type="line"/>
      <point x="400" y="300" type="line"/>
      <point x="350" y="300" type="line"/>
      <point x="350" y="350" type="line"/>
      <point x="400" y="350" type="line"/>
      <point x="400" y="400" type="line"/>
      <point x="450" y="400" type="line"/>
      <point x="450" y="600" type="line"/>
      <point x="400" y="600" type="line"/>
      <point x="400" y="650" type="line"/>
      <point x="350" y="650" type="line"/>
      <point x="350" y="700" type="line"/>
      <point x="150" y="700" type="line"/>
      <point x="150" y="650" type="line"/>
      <point x="100" y="650" type="line"/>
      <point x="100" y="600" type="line"/>
      <point x="50" y="600" type="line"/>
      <point x="50" y="400" type="line"/>
      <point x="100" y="400" type="line"/>
      <point x="100" y="350" type="line"/>
      <point x="50" y="350" type="line"/>
      <point x="50" y="300" type="line"/>
      <point x="0" y="300" type="line"/>
      <point x="0" y="100" type="line"/>
      <point x="50" y="100" type="line"/>
      <point x="50" y="50" type="line"/>
      <point x="100" y="50" type="line"/>
      <point x="100" y="0" type="line"/>
      <point x="450" y="0" type="line"/>
      <point x="450" y="50" type="line"/>
      <point x="500" y="50" type="line"/>
      <point x="500" y="0" type="line"/>
      <point x="600" y="0" type="line"/>
      <point x="600" y="100" type="line"/>
      <point x="550" y="100" type="line"/>
      <point x="550" y="200" type="line"/>
      <point x="600" y="200" type="line"/>
      <point x="600" y="350" type="line"/>
      <point x="500" y="350" type="line"/>
    </contour>
  </outline>
</glyph>
<glyph name="quotesingle" format="2">
  <advance width="150"/>
  <unicode hex="0027"/>
  <outline>
    <contour>
      <point x="0" y="700" type="line"/>
      <point x="100" y="700" type="line"/>
      <point x="100" y="450" type="line"/>
      <point x="0" y="450" type="line"/>
    </contour>
  </outline>
</glyph>
<glyph name="parenleft" format="2">
  <advance width="300"/>
  <unicode hex="0028"/>
  <outline>
    <contour>
      <point x="50" y="500" type="line"/>
      <point x="50" y="650" type="line"/>
      <point x="100" y="650" type="line"/>
      <point x="100" y="750" type="line"/>
      <point x="150" y="750" type="line"/>
      <point x="150" y="800" type="line"/>
      <point x="250" y="800" type="line"/>
      <point x="250" y="750" type="line"/>
      <point x="200" y="750" type="line"/>
      <point x="200" y="650" type="line"/>
      <point x="150" y="650" type="line"/>
      <point x="150" y="500" type="line"/>
      <point x="100" y="500" type="line"/>
      <point x="100" y="150" type="line"/>
      <point x="150" y="150" type="line"/>
      <point x="150" y="0" type="line"/>
      <point x="200" y="0" type="line"/>
      <point x="200" y="-100" type="line"/>
      <point x="250" y="-100" type="line"/>
      <point x="250" y="-150" type="line"/>
      <point x="150" y="-150" type="line"/>
      <point x="150" y="-100" type="line"/>
      <point x="100" y="-100" type="line"/>
      <point x="100" y="0" type="line"/>
      <point x="50" y="0" type="line"/>
      <point x="50" y="150" type="line"/>
      <point x="0" y="150" type="line"/>
      <point x="0" y="500" type="line"/>
    </contour>
  </outline>
</glyph>
<glyph name="parenright" format="2">
  <advance width="300"/>
  <unicode hex="0029"/>
  <outline>
    <contour>
      <point x="200" y="500" type="line"/>
      <point x="200" y="650" type="line"/>
      <point x="150" y="650" type="line"/>
      <point x="150" y="750" type="line"/>
      <point x="100" y="750" type="line"/>
      <point x="100" y="800" type="line"/>
      <point x="0" y="800" type="line"/>
      <point x="0" y="750" type="line"/>
      <point x="50" y="750" type="line"/>
      <point x="50" y="650" type="line"/>
      <point x="100" y="650" type="line"/>
      <point x="100" y="500" type="line"/>
      <point x="150" y="500" type="line"/>
      <point x="150" y="150" type="line"/>
      <point x="100" y="150" type="line"/>
      <point x="100" y="0" type="line"/>
      <point x="50" y="0" type="line"/>
      <point x="50" y="-100" type="line"/>
      <point x="0" y="-100" type="line"/>
      <point x="0" y="-150" type="line"/>
      <point x="100" y="-150" type="line"/>
      <point x="100" y="-100" type="line"/>
      <point x="150" y="-100" type="line"/>
      <point x="150" y="0" type="line"/>
      <point x="200" y="0" type="line"/>
      <point x="200" y="150" type="line"/>
      <point x="250" y="150" type="line"/>
      <point x="250" y="500" type="line"/>
    </contour>
  </outline>
</glyph>
<glyph name="asterisk" format="2">
  <advance width="300"/>
  <unicode hex="002A"/>
  <outline>
    <contour>
      <point x="250" y="450" type="line"/>
      <point x="200" y="450" type="line"/>
      <point x="200" y="400" type="line"/>
      <point x="250" y="400" type="line"/>
    </contour>
    <contour>
      <point x="50" y="450" type="line"/>
      <point x="0" y="450" type="line"/>
      <point x="0" y="400" type="line"/>
      <point x="50" y="400" type="line"/>
    </contour>
    <contour>
      <point x="200" y="500" type="line"/>
      <point x="150" y="500" type="line"/>
      <point x="150" y="450" type="line"/>
      <point x="200" y="450" type="line"/>
    </contour>
    <contour>
      <point x="100" y="500" type="line"/>
      <point x="50" y="500" type="line"/>
      <point x="50" y="450" type="line"/>
      <point x="100" y="450" type="line"/>
    </contour>
    <contour>
      <point x="150" y="600" type="line"/>
      <point x="150" y="700" type="line"/>
      <point x="100" y="700" type="line"/>
      <point x="100" y="600" type="line"/>
      <point x="0" y="600" type="line"/>
      <point x="0" y="550" type="line"/>
      <point x="100" y="550" type="line"/>
      <point x="100" y="500" type="line"/>
      <point x="150" y="500" type="line"/>
      <point x="150" y="550" type="line"/>
      <point x="250" y="550" type="line"/>
      <point x="250" y="600" type="line"/>
    </contour>
  </outline>
</glyph>
<glyph name="plus" format="2">
  <advance width="550"/>
  <unicode hex="002B"/>
  <outline>
    <contour>
      <point x="300" y="300" type="line"/>
      <point x="300" y="500" type="line"/>
      <point x="200" y="500" type="line"/>
      <point x="200" y="300" type="line"/>
      <point x="0" y="300" type="line"/>
      <point x="0" y="200" type="line"/>
      <point x="200" y="200" type="line"/>
      <point x="200" y="0" type="line"/>
      <point x="300" y="0" type="line"/>
      <point x="300" y="200" type="line"/>
      <point x="500" y="200" type="line"/>
      <point x="500" y="300" type="line"/>
    </contour>
  </outline>
</glyph>
<glyph name="comma" format="2">
  <advance width="150"/>
  <unicode hex="002C"/>
  <outline>
    <contour>
      <point x="0" y="100" type="line"/>
      <point x="100" y="100" type="line"/>
      <point x="100" y="-50" type="line"/>
      <point x="50" y="-50" type="line"/>
      <point x="50" y="-100" type="line"/>
      <point x="0" y="-100" type="line"/>
      <point x="0" y="-50" type="line"/>
      <point x="50" y="-50" type="line"/>
      <point x="50" y="0" type="line"/>
      <point x="0" y="0" type="line"/>
    </contour>
  </outline>
</glyph>
<glyph name="hyphen" format="2">
  <advance width="400"/>
  <unicode hex="002D"/>
  <outline>
    <contour>
      <point x="0" y="300" type="line"/>
      <point x="350" y="300" type="line"/>
      <point x="350" y="200" type="line"/>
      <point x="0" y="200" type="line"/>
    </contour>
  </outline>
  <guideline angle="0" x="0" y="200"/>
  <guideline angle="0" x="0" y="300"/>
</glyph>
<glyph name="period" format="2">
  <advance width="150"/>
  <unicode hex="002E"/>
  <outline>
    <contour>
      <point x="0" y="100" type="line"/>
      <point x="100" y="100" type="line"/>
      <point x="100" y="0" type="line"/>
      <point x="0" y="0" type="line"/>
    </contour>
  </outline>
</glyph>
<glyph name="one" format="2">
  <advance width="300"/>
  <unicode hex="0031"/>
  <outline>
    <contour>
      <point x="250" y="700" type="line"/>
      <point x="150" y="700" type="line"/>
      <point x="150" y="600" type="line"/>
      <point x="0" y="600" type="line"/>
      <point x="0" y="500" type="line"/>
      <point x="150" y="500" type="line"/>
      <point x="150" y="0" type="line"/>
      <point x="250" y="0" type="line"/>
    </contour>
  </outline>
</glyph>
<glyph name="three" format="2">
  <advance width="500"/>
  <unicode hex="0033"/>
  <outline>
    <contour>
      <point x="0" y="500" type="line"/>
      <point x="100" y="500" type="line"/>
      <point x="100" y="550" type="line"/>
      <point x="150" y="550" type="line"/>
      <point x="150" y="600" type="line"/>
      <point x="300" y="600" type="line"/>
      <point x="300" y="550" type="line"/>
      <point x="350" y="550" type="line"/>
      <point x="350" y="450" type="line"/>
      <point x="300" y="450" type="line"/>
      <point x="300" y="400" type="line"/>
      <point x="150" y="400" type="line"/>
      <point x="150" y="300" type="line"/>
      <point x="300" y="300" type="line"/>
      <point x="300" y="250" type="line"/>
      <point x="350" y="250" type="line"/>
      <point x="350" y="150" type="line"/>
      <point x="300" y="150" type="line"/>
      <point x="300" y="100" type="line"/>
      <point x="150" y="100" type="line"/>
      <point x="150" y="150" type="line"/>
      <point x="100" y="150" type="line"/>
      <point x="100" y="200" type="line"/>
      <point x="0" y="200" type="line"/>
      <point x="0" y="100" type="line"/>
      <point x="50" y="100" type="line"/>
      <point x="50" y="50" type="line"/>
      <point x="100" y="50" type="line"/>
      <point x="100" y="0" type="line"/>
      <point x="350" y="0" type="line"/>
      <point x="350" y="50" type="line"/>
      <point x="400" y="50" type="line"/>
      <point x="400" y="100" type="line"/>
      <point x="450" y="100" type="line"/>
      <point x="450" y="300" type="line"/>
      <point x="400" y="300" type="line"/>
      <point x="400" y="400" type="line"/>
      <point x="450" y="400" type="line"/>
      <point x="450" y="600" type="line"/>
      <point x="400" y="600" type="line"/>
      <point x="400" y="650" type="line"/>
      <point x="350" y="650" type="line"/>
      <point x="350" y="700" type="line"/>
      <point x="100" y="700" type="line"/>
      <point x="100" y="650" type="line"/>
      <point x="50" y="650" type="line"/>
      <point x="50" y="600" type="line"/>
      <point x="0" y="600" type="line"/>
    </contour>
  </outline>
</glyph>
<glyph name="four" format="2">
  <advance width="500"/>
  <unicode hex="0034"/>
  <outline>
    <contour>
      <point x="300" y="600" type="line"/>
      <point x="250" y="600" type="line"/>
      <point x="250" y="500" type="line"/>
      <point x="200" y="500" type="line"/>
      <point x="200" y="400" type="line"/>
      <point x="150" y="400" type="line"/>
      <point x="150" y="300" type="line"/>
      <point x="100" y="300" type="line"/>
      <point x="100" y="250" type="line"/>
      <point x="300" y="250" type="line"/>
    </contour>
    <contour>
      <point x="300" y="0" type="line"/>
      <point x="300" y="150" type="line"/>
      <point x="0" y="150" type="line"/>
      <point x="0" y="300" type="line"/>
      <point x="50" y="300" type="line"/>
      <point x="50" y="400" type="line"/>
      <point x="100" y="400" type="line"/>
      <point x="100" y="500" type="line"/>
      <point x="150" y="500" type="line"/>
      <point x="150" y="600" type="line"/>
      <point x="200" y="600" type="line"/>
      <point x="200" y="700" type="line"/>
      <point x="400" y="700" type="line"/>
      <point x="400" y="250" type="line"/>
      <point x="450" y="250" type="line"/>
      <point x="450" y="150" type="line"/>
      <point x="400" y="150" type="line"/>
      <point x="400" y="0" type="line"/>
    </contour>
  </outline>
</glyph>
<glyph name="five" format="2">
  <advance width="500"/>
  <unicode hex="0035"/>
  <outline>
    <contour>
      <point x="0" y="200" type="line"/>
      <point x="100" y="200" type="line"/>
      <point x="100" y="150" type="line"/>
      <point x="150" y="150" type="line"/>
      <point x="150" y="100" type="line"/>
      <point x="300" y="100" type="line"/>
      <point x="300" y="150" type="line"/>
      <point x="350" y="150" type="line"/>
      <point x="350" y="300" type="line"/>
      <point x="300" y="300" type="line"/>
      <point x="300" y="350" type="line"/>
      <point x="150" y="350" type="line"/>
      <point x="150" y="300" type="line"/>
      <point x="0" y="300" type="line"/>
      <point x="0" y="550" type="line"/>
      <point x="50" y="550" type="line"/>
      <point x="50" y="700" type="line"/>
      <point x="400" y="700" type="line"/>
      <point x="400" y="600" type="line"/>
      <point x="150" y="600" type="line"/>
      <point x="150" y="550" type="line"/>
      <point x="100" y="550" type="line"/>
      <point x="100" y="400" type="line"/>
      <point x="150" y="400" type="line"/>
      <point x="150" y="450" type="line"/>
      <point x="350" y="450" type="line"/>
      <point x="350" y="400" type="line"/>
      <point x="400" y="400" type="line"/>
      <point x="400" y="350" type="line"/>
      <point x="450" y="350" type="line"/>
      <point x="450" y="100" type="line"/>
      <point x="400" y="100" type="line"/>
      <point x="400" y="50" type="line"/>
      <point x="350" y="50" type="line"/>
      <point x="350" y="0" type="line"/>
      <point x="100" y="0" type="line"/>
      <point x="100" y="50" type="line"/>
      <point x="50" y="50" type="line"/>
      <point x="50" y="100" type="line"/>
      <point x="0" y="100" type="line"/>
    </contour>
  </outline>
</glyph>
<glyph name="seven" format="2">
  <advance width="500"/>
  <unicode hex="0037"/>
  <outline>
    <contour>
      <point x="0" y="600" type="line"/>
      <point x="350" y="600" type="line"/>
      <point x="350" y="550" type="line"/>
      <point x="300" y="550" type="line"/>
      <point x="300" y="500" type="line"/>
      <point x="250" y="500" type="line"/>
      <point x="250" y="450" type="line"/>
      <point x="200" y="450" type="line"/>
      <point x="200" y="350" type="line"/>
      <point x="150" y="350" type="line"/>
      <point x="150" y="200" type="line"/>
      <point x="100" y="200" type="line"/>
      <point x="100" y="0" type="line"/>
      <point x="200" y="0" type="line"/>
      <point x="200" y="200" type="line"/>
      <point x="250" y="200" type="line"/>
      <point x="250" y="300" type="line"/>
      <point x="300" y="300" type="line"/>
      <point x="300" y="400" type="line"/>
      <point x="350" y="400" type="line"/>
      <point x="350" y="450" type="line"/>
      <point x="400" y="450" type="line"/>
      <point x="400" y="500" type="line"/>
      <point x="450" y="500" type="line"/>
      <point x="450" y="700" type="line"/>
      <point x="0" y="700" type="line"/>
    </contour>
  </outline>
</glyph>
<glyph name="semicolon" format="2">
  <advance width="150"/>
  <unicode hex="003B"/>
  <outline>
    <contour>
      <point x="50" y="-100" type="line"/>
      <point x="50" y="-50" type="line"/>
      <point x="100" y="-50" type="line"/>
      <point x="100" y="100" type="line"/>
      <point x="0" y="100" type="line"/>
      <point x="0" y="0" type="line"/>
      <point x="50" y="0" type="line"/>
      <point x="50" y="-50" type="line"/>
      <point x="0" y="-50" type="line"/>
      <point x="0" y="-100" type="line"/>
    </contour>
    <contour>
      <point x="100" y="500" type="line"/>
      <point x="0" y="500" type="line"/>
      <point x="0" y="400" type="line"/>
      <point x="100" y="400" type="line"/>
    </contour>
  </outline>
</glyph>
<glyph name="less" format="2">
  <advance width="550"/>
  <unicode hex="003C"/>
  <outline>
    <contour>
      <point x="100" y="150" type="line"/>
      <point x="100" y="200" type="line"/>
      <point x="0" y="200" type="line"/>
      <point x="0" y="400" type="line"/>
      <point x="100" y="400" type="line"/>
      <point x="100" y="450" type="line"/>
      <point x="200" y="450" type="line"/>
      <point x="200" y="500" type="line"/>
      <point x="300" y="500" type="line"/>
      <point x="300" y="550" type="line"/>
      <point x="400" y="550" type="line"/>
      <point x="400" y="600" type="line"/>
      <point x="500" y="600" type="line"/>
      <point x="500" y="500" type="line"/>
      <point x="400" y="500" type="line"/>
      <point x="400" y="450" type="line"/>
      <point x="300" y="450" type="line"/>
      <point x="300" y="400" type="line"/>
      <point x="200" y="400" type="line"/>
      <point x="200" y="350" type="line"/>
      <point x="100" y="350" type="line"/>
      <point x="100" y="250" type="line"/>
      <point x="200" y="250" type="line"/>
      <point x="200" y="200" type="line"/>
      <point x="300" y="200" type="line"/>
      <point x="300" y="150" type="line"/>
      <point x="400" y="150" type="line"/>
      <point x="400" y="100" type="line"/>
      <point x="500" y="100" type="line"/>
      <point x="500" y="0" type="line"/>
      <point x="400" y="0" type="line"/>
      <point x="400" y="50" type="line"/>
      <point x="300" y="50" type="line"/>
      <point x="300" y="100" type="line"/>
      <point x="200" y="100" type="line"/>
      <point x="200" y="150" type="line"/>
    </contour>
  </outline>
</glyph>
<glyph name="equal" format="2">
  <advance width="500"/>
  <unicode hex="003D"/>
  <outline>
    <contour>
      <point x="450" y="200" type="line"/>
      <point x="0" y="200" type="line"/>
      <point x="0" y="100" type="line"/>
      <point x="450" y="100" type="line"/>
    </contour>
    <contour>
      <point x="450" y="400" type="line"/>
      <point x="0" y="400" type="line"/>
      <point x="0" y="300" type="line"/>
      <point x="450" y="300" type="line"/>
    </contour>
  </outline>
  <guideline angle="0" x="0" y="400"/>
  <guideline angle="0" x="0" y="100"/>
</glyph>
<glyph name="greater" format="2">
  <advance width="550"/>
  <unicode hex="003E"/>
  <outline>
    <contour>
      <point x="400" y="150" type="line"/>
      <point x="400" y="200" type="line"/>
      <point x="500" y="200" type="line"/>
      <point x="500" y="400" type="line"/>
      <point x="400" y="400" type="line"/>
      <point x="400" y="450" type="line"/>
      <point x="300" y="450" type="line"/>
      <point x="300" y="500" type="line"/>
      <point x="200" y="500" type="line"/>
      <point x="200" y="550" type="line"/>
      <point x="100" y="550" type="line"/>
      <point x="100" y="600" type="line"/>
      <point x="0" y="600" type="line"/>
      <point x="0" y="500" type="line"/>
      <point x="100" y="500" type="line"/>
      <point x="100" y="450" type="line"/>
      <point x="200" y="450" type="line"/>
      <point x="200" y="400" type="line"/>
      <point x="300" y="400" type="line"/>
      <point x="300" y="350" type="line"/>
      <point x="400" y="350" type="line"/>
      <point x="400" y="250" type="line"/>
      <point x="300" y="250" type="line"/>
      <point x="300" y="200" type="line"/>
      <point x="200" y="200" type="line"/>
      <point x="200" y="150" type="line"/>
      <point x="100" y="150" type="line"/>
      <point x="100" y="100" type="line"/>
      <point x="0" y="100" type="line"/>
      <point x="0" y="0" type="line"/>
      <point x="100" y="0" type="line"/>
      <point x="100" y="50" type="line"/>
      <point x="200" y="50" type="line"/>
      <point x="200" y="100" type="line"/>
      <point x="300" y="100" type="line"/>
      <point x="300" y="150" type="line"/>
    </contour>
  </outline>
</glyph>
<glyph name="question" format="2">
  <advance width="500"/>
  <unicode hex="003F"/>
  <outline>
    <contour>
      <point x="250" y="100" type="line"/>
      <point x="150" y="100" type="line"/>
      <point x="150" y="0" type="line"/>
      <point x="250" y="0" type="line"/>
    </contour>
    <contour>
      <point x="0" y="500" type="line"/>
      <point x="100" y="500" type="line"/>
      <point x="100" y="550" type="line"/>
      <point x="150" y="550" type="line"/>
      <point x="150" y="600" type="line"/>
      <point x="300" y="600" type="line"/>
      <point x="300" y="550" type="line"/>
      <point x="350" y="550" type="line"/>
      <point x="350" y="450" type="line"/>
      <point x="300" y="450" type="line"/>
      <point x="300" y="400" type="line"/>
      <point x="250" y="400" type="line"/>
      <point x="250" y="350" type="line"/>
      <point x="200" y="350" type="line"/>
      <point x="200" y="300" type="line"/>
      <point x="150" y="300" type="line"/>
      <point x="150" y="200" type="line"/>
      <point x="250" y="200" type="line"/>
      <point x="250" y="250" type="line"/>
      <point x="300" y="250" type="line"/>
      <point x="300" y="300" type="line"/>
      <point x="350" y="300" type="line"/>
      <point x="350" y="350" type="line"/>
      <point x="400" y="350" type="line"/>
      <point x="400" y="400" type="line"/>
      <point x="450" y="400" type="line"/>
      <point x="450" y="600" type="line"/>
      <point x="400" y="600" type="line"/>
      <point x="400" y="650" type="line"/>
      <point x="350" y="650" type="line"/>
      <point x="350" y="700" type="line"/>
      <point x="100" y="700" type="line"/>
      <point x="100" y="650" type="line"/>
      <point x="50" y="650" type="line"/>
      <point x="50" y="600" type="line"/>
      <point x="0" y="600" type="line"/>
    </contour>
  </outline>
</glyph>
<glyph name="at" format="2">
  <advance width="750"/>
  <unicode hex="0040"/>
  <outline>
    <contour>
      <point x="450" y="250" type="line"/>
      <point x="450" y="450" type="line"/>
      <point x="400" y="450" type="line"/>
      <point x="400" y="500" type="line"/>
      <point x="250" y="500" type="line"/>
      <point x="250" y="450" type="line"/>
      <point x="200" y="450" type="line"/>
      <point x="200" y="250" type="line"/>
      <point x="250" y="250" type="line"/>
      <point x="250" y="200" type="line"/>
      <point x="400" y="200" type="line"/>
      <point x="400" y="250" type="line"/>
    </contour>
    <contour>
      <point x="550" y="100" type="line"/>
      <point x="550" y="50" type="line"/>
      <point x="450" y="50" type="line"/>
      <point x="450" y="0" type="line"/>
      <point x="250" y="0" type="line"/>
      <point x="250" y="50" type="line"/>
      <point x="150" y="50" type="line"/>
      <point x="150" y="100" type="line"/>
      <point x="100" y="100" type="line"/>
      <point x="100" y="150" type="line"/>
      <point x="50" y="150" type="line"/>
      <point x="50" y="250" type="line"/>
      <point x="0" y="250" type="line"/>
      <point x="0" y="450" type="line"/>
      <point x="50" y="450" type="line"/>
      <point x="50" y="550" type="line"/>
      <point x="100" y="550" type="line"/>
      <point x="100" y="600" type="line"/>
      <point x="150" y="600" type="line"/>
      <point x="150" y="650" type="line"/>
      <point x="250" y="650" type="line"/>
      <point x="250" y="700" type="line"/>
      <point x="450" y="700" type="line"/>
      <point x="450" y="650" type="line"/>
      <point x="550" y="650" type="line"/>
      <point x="550" y="600" type="line"/>
      <point x="600" y="600" type="line"/>
      <point x="600" y="550" type="line"/>
      <point x="650" y="550" type="line"/>
      <point x="650" y="450" type="line"/>
      <point x="700" y="450" type="line"/>
      <point x="700" y="250" type="line"/>
      <point x="650" y="250" type="line"/>
      <point x="650" y="200" type="line"/>
      <point x="600" y="200" type="line"/>
      <point x="600" y="150" type="line"/>
      <point x="500" y="150" type="line"/>
      <point x="500" y="200" type="line"/>
      <point x="400" y="200" type="line"/>
      <point x="400" y="150" type="line"/>
      <point x="250" y="150" type="line"/>
      <point x="250" y="200" type="line"/>
      <point x="200" y="200" type="line"/>
      <point x="200" y="250" type="line"/>
      <point x="150" y="250" type="line"/>
      <point x="150" y="450" type="line"/>
      <point x="200" y="450" type="line"/>
      <point x="200" y="500" type="line"/>
      <point x="250" y="500" type="line"/>
      <point x="250" y="550" type="line"/>
      <point x="400" y="550" type="line"/>
      <point x="400" y="500" type="line"/>
      <point x="450" y="500" type="line"/>
      <point x="450" y="550" type="line"/>
      <point x="500" y="550" type="line"/>
      <point x="500" y="200" type="line"/>
      <point x="600" y="200" type="line"/>
      <point x="600" y="250" type="line"/>
      <point x="650" y="250" type="line"/>
      <point x="650" y="450" type="line"/>
      <point x="600" y="450" type="line"/>
      <point x="600" y="550" type="line"/>
      <point x="550" y="550" type="line"/>
      <point x="550" y="600" type="line"/>
      <point x="450" y="600" type="line"/>
      <point x="450" y="650" type="line"/>
      <point x="250" y="650" type="line"/>
      <point x="250" y="600" type="line"/>
      <point x="150" y="600" type="line"/>
      <point x="150" y="550" type="line"/>
      <point x="100" y="550" type="line"/>
      <point x="100" y="450" type="line"/>
      <point x="50" y="450" type="line"/>
      <point x="50" y="250" type="line"/>
      <point x="100" y="250" type="line"/>
      <point x="100" y="150" type="line"/>
      <point x="150" y="150" type="line"/>
      <point x="150" y="100" type="line"/>
      <point x="250" y="100" type="line"/>
      <point x="250" y="50" type="line"/>
      <point x="450" y="50" type="line"/>
      <point x="450" y="100" type="line"/>
    </contour>
  </outline>
</glyph>
<glyph name="A" format="2">
  <advance width="600"/>
  <unicode hex="0041"/>
  <outline>
    <contour>
      <point x="0" y="0" type="line"/>
      <point x="0" y="150" type="line"/>
      <point x="50" y="150" type="line"/>
      <point x="50" y="300" type="line"/>
      <point x="100" y="300" type="line"/>
      <point x="100" y="450" type="line"/>
      <point x="150" y="450" type="line"/>
      <point x="150" y="600" type="line"/>
      <point x="200" y="600" type="line"/>
      <point x="200" y="700" type="line"/>
      <point x="350" y="700" type="line"/>
      <point x="350" y="600" type="line"/>
      <point x="400" y="600" type="line"/>
      <point x="400" y="450" type="line"/>
      <point x="450" y="450" type="line"/>
      <point x="450" y="300" type="line"/>
      <point x="500" y="300" type="line"/>
      <point x="500" y="150" type="line"/>
      <point x="550" y="150" type="line"/>
      <point x="550" y="0" type="line"/>
      <point x="450" y="0" type="line"/>
      <point x="450" y="150" type="line"/>
      <point x="100" y="150" type="line"/>
      <point x="100" y="0" type="line"/>
    </contour>
    <contour>
      <point x="150" y="250" type="line"/>
      <point x="400" y="250" type="line"/>
      <point x="400" y="300" type="line"/>
      <point x="350" y="300" type="line"/>
      <point x="350" y="450" type="line"/>
      <point x="300" y="450" type="line"/>
      <point x="300" y="550" type="line"/>
      <point x="250" y="550" type="line"/>
      <point x="250" y="450" type="line"/>
      <point x="200" y="450" type="line"/>
      <point x="200" y="300" type="line"/>
      <point x="150" y="300" type="line"/>
    </contour>
  </outline>
</glyph>
<glyph name="B" format="2">
  <advance width="600"/>
  <unicode hex="0042"/>
  <outline>
    <contour>
      <point x="100" y="300" type="line"/>
      <point x="100" y="100" type="line"/>
      <point x="400" y="100" type="line"/>
      <point x="400" y="150" type="line"/>
      <point x="450" y="150" type="line"/>
      <point x="450" y="250" type="line"/>
      <point x="400" y="250" type="line"/>
      <point x="400" y="300" type="line"/>
    </contour>
    <contour>
      <point x="100" y="600" type="line"/>
      <point x="100" y="400" type="line"/>
      <point x="350" y="400" type="line"/>
      <point x="350" y="450" type="line"/>
      <point x="400" y="450" type="line"/>
      <point x="400" y="550" type="line"/>
      <point x="350" y="550" type="line"/>
      <point x="350" y="600" type="line"/>
    </contour>
    <contour>
      <point x="0" y="700" type="line"/>
      <point x="400" y="700" type="line"/>
      <point x="400" y="650" type="line"/>
      <point x="450" y="650" type="line"/>
      <point x="450" y="600" type="line"/>
      <point x="500" y="600" type="line"/>
      <point x="500" y="450" type="line"/>
      <point x="450" y="450" type="line"/>
      <point x="450" y="350" type="line"/>
      <point x="500" y="350" type="line"/>
      <point x="500" y="300" type="line"/>
      <point x="550" y="300" type="line"/>
      <point x="550" y="100" type="line"/>
      <point x="500" y="100" type="line"/>
      <point x="500" y="50" type="line"/>
      <point x="450" y="50" type="line"/>
      <point x="450" y="0" type="line"/>
      <point x="0" y="0" type="line"/>
    </contour>
  </outline>
</glyph>
<glyph name="D" format="2">
  <advance width="600"/>
  <unicode hex="0044"/>
  <outline>
    <contour>
      <point x="100" y="600" type="line"/>
      <point x="100" y="100" type="line"/>
      <point x="350" y="100" type="line"/>
      <point x="350" y="150" type="line"/>
      <point x="400" y="150" type="line"/>
      <point x="400" y="200" type="line"/>
      <point x="450" y="200" type="line"/>
      <point x="450" y="500" type="line"/>
      <point x="400" y="500" type="line"/>
      <point x="400" y="550" type="line"/>
      <point x="350" y="550" type="line"/>
      <point x="350" y="600" type="line"/>
    </contour>
    <contour>
      <point x="0" y="700" type="line"/>
      <point x="400" y="700" type="line"/>
      <point x="400" y="650" type="line"/>
      <point x="450" y="650" type="line"/>
      <point x="450" y="600" type="line"/>
      <point x="500" y="600" type="line"/>
      <point x="500" y="550" type="line"/>
      <point x="550" y="550" type="line"/>
      <point x="550" y="150" type="line"/>
      <point x="500" y="150" type="line"/>
      <point x="500" y="100" type="line"/>
      <point x="450" y="100" type="line"/>
      <point x="450" y="50" type="line"/>
      <point x="400" y="50" type="line"/>
      <point x="400" y="0" type="line"/>
      <point x="0" y="0" type="line"/>
    </contour>
  </outline>
</glyph>
<glyph name="E" format="2">
  <advance width="550"/>
  <unicode hex="0045"/>
  <outline>
    <contour>
      <point x="500" y="700" type="line"/>
      <point x="500" y="600" type="line"/>
      <point x="100" y="600" type="line"/>
      <point x="100" y="450" type="line"/>
      <point x="450" y="450" type="line"/>
      <point x="450" y="350" type="line"/>
      <point x="100" y="350" type="line"/>
      <point x="100" y="100" type="line"/>
      <point x="500" y="100" type="line"/>
      <point x="500" y="0" type="line"/>
      <point x="0" y="0" type="line"/>
      <point x="0" y="700" type="line"/>
    </contour>
  </outline>
</glyph>
<glyph name="H" format="2">
  <advance width="600"/>
  <unicode hex="0048"/>
  <outline>
    <contour>
      <point x="450" y="450" type="line"/>
      <point x="450" y="700" type="line"/>
      <point x="550" y="700" type="line"/>
      <point x="550" y="0" type="line"/>
      <point x="450" y="0" type="line"/>
      <point x="450" y="350" type="line"/>
      <point x="100" y="350" type="line"/>
      <point x="100" y="0" type="line"/>
      <point x="0" y="0" type="line"/>
      <point x="0" y="700" type="line"/>
      <point x="100" y="700" type="line"/>
      <point x="100" y="450" type="line"/>
    </contour>
  </outline>
</glyph>
<glyph name="J" format="2">
  <advance width="450"/>
  <unicode hex="004A"/>
  <outline>
    <contour>
      <point x="300" y="150" type="line"/>
      <point x="300" y="700" type="line"/>
      <point x="400" y="700" type="line"/>
      <point x="400" y="100" type="line"/>
      <point x="350" y="100" type="line"/>
      <point x="350" y="50" type="line"/>
      <point x="300" y="50" type="line"/>
      <point x="300" y="0" type="line"/>
      <point x="100" y="0" type="line"/>
      <point x="100" y="50" type="line"/>
      <point x="50" y="50" type="line"/>
      <point x="50" y="100" type="line"/>
      <point x="0" y="100" type="line"/>
      <point x="0" y="250" type="line"/>
      <point x="100" y="250" type="line"/>
      <point x="100" y="150" type="line"/>
      <point x="150" y="150" type="line"/>
      <point x="150" y="100" type="line"/>
      <point x="250" y="100" type="line"/>
      <point x="250" y="150" type="line"/>
    </contour>
  </outline>
</glyph>
<glyph name="K" format="2">
  <advance width="550"/>
  <unicode hex="004B"/>
  <outline>
    <contour>
      <point x="100" y="450" type="line"/>
      <point x="150" y="450" type="line"/>
      <point x="150" y="500" type="line"/>
      <point x="200" y="500" type="line"/>
      <point x="200" y="550" type="line"/>
      <point x="250" y="550" type="line"/>
      <point x="250" y="600" type="line"/>
      <point x="300" y="600" type="line"/>
      <point x="300" y="650" type="line"/>
      <point x="350" y="650" type="line"/>
      <point x="350" y="700" type="line"/>
      <point x="500" y="700" type="line"/>
      <point x="500" y="650" type="line"/>
      <point x="450" y="650" type="line"/>
      <point x="450" y="600" type="line"/>
      <point x="400" y="600" type="line"/>
      <point x="400" y="550" type="line"/>
      <point x="350" y="550" type="line"/>
      <point x="350" y="500" type="line"/>
      <point x="300" y="500" type="line"/>
      <point x="300" y="450" type="line"/>
      <point x="250" y="450" type="line"/>
      <point x="250" y="400" type="line"/>
      <point x="200" y="400" type="line"/>
      <point x="200" y="300" type="line"/>
      <point x="250" y="300" type="line"/>
      <point x="250" y="250" type="line"/>
      <point x="300" y="250" type="line"/>
      <point x="300" y="200" type="line"/>
      <point x="350" y="200" type="line"/>
      <point x="350" y="150" type="line"/>
      <point x="400" y="150" type="line"/>
      <point x="400" y="100" type="line"/>
      <point x="450" y="100" type="line"/>
      <point x="450" y="50" type="line"/>
      <point x="500" y="50" type="line"/>
      <point x="500" y="0" type="line"/>
      <point x="350" y="0" type="line"/>
      <point x="350" y="50" type="line"/>
      <point x="300" y="50" type="line"/>
      <point x="300" y="100" type="line"/>
      <point x="250" y="100" type="line"/>
      <point x="250" y="150" type="line"/>
      <point x="200" y="150" type="line"/>
      <point x="200" y="200" type="line"/>
      <point x="150" y="200" type="line"/>
      <point x="150" y="250" type="line"/>
      <point x="100" y="250" type="line"/>
      <point x="100" y="0" type="line"/>
      <point x="0" y="0" type="line"/>
      <point x="0" y="700" type="line"/>
      <point x="100" y="700" type="line"/>
    </contour>
  </outline>
</glyph>
<glyph name="L" format="2">
  <advance width="500"/>
  <unicode hex="004C"/>
  <outline>
    <contour>
      <point x="100" y="100" type="line"/>
      <point x="450" y="100" type="line"/>
      <point x="450" y="0" type="line"/>
      <point x="0" y="0" type="line"/>
      <point x="0" y="700" type="line"/>
      <point x="100" y="700" type="line"/>
    </contour>
  </outline>
</glyph>
<glyph name="M" format="2">
  <advance width="700"/>
  <unicode hex="004D"/>
  <outline>
    <contour>
      <point x="350" y="150" type="line"/>
      <point x="350" y="300" type="line"/>
      <point x="400" y="300" type="line"/>
      <point x="400" y="450" type="line"/>
      <point x="450" y="450" type="line"/>
      <point x="450" y="600" type="line"/>
      <point x="500" y="600" type="line"/>
      <point x="500" y="700" type="line"/>
      <point x="650" y="700" type="line"/>
      <point x="650" y="0" type="line"/>
      <point x="550" y="0" type="line"/>
      <point x="550" y="450" type="line"/>
      <point x="500" y="450" type="line"/>
      <point x="500" y="300" type="line"/>
      <point x="450" y="300" type="line"/>
      <point x="450" y="150" type="line"/>
      <point x="400" y="150" type="line"/>
      <point x="400" y="0" type="line"/>
      <point x="250" y="0" type="line"/>
      <point x="250" y="150" type="line"/>
      <point x="200" y="150" type="line"/>
      <point x="200" y="300" type="line"/>
      <point x="150" y="300" type="line"/>
      <point x="150" y="450" type="line"/>
      <point x="100" y="450" type="line"/>
      <point x="100" y="0" type="line"/>
      <point x="0" y="0" type="line"/>
      <point x="0" y="700" type="line"/>
      <point x="150" y="700" type="line"/>
      <point x="150" y="600" type="line"/>
      <point x="200" y="600" type="line"/>
      <point x="200" y="450" type="line"/>
      <point x="250" y="450" type="line"/>
      <point x="250" y="300" type="line"/>
      <point x="300" y="300" type="line"/>
      <point x="300" y="150" type="line"/>
    </contour>
  </outline>
</glyph>
<glyph name="N" format="2">
  <advance width="550"/>
  <unicode hex="004E"/>
  <outline>
    <contour>
      <point x="400" y="200" type="line"/>
      <point x="400" y="700" type="line"/>
      <point x="500" y="700" type="line"/>
      <point x="500" y="0" type="line"/>
      <point x="350" y="0" type="line"/>
      <point x="350" y="100" type="line"/>
      <point x="300" y="100" type="line"/>
      <point x="300" y="200" type="line"/>
      <point x="250" y="200" type="line"/>
      <point x="250" y="300" type="line"/>
      <point x="200" y="300" type="line"/>
      <point x="200" y="400" type="line"/>
      <point x="150" y="400" type="line"/>
      <point x="150" y="500" type="line"/>
      <point x="100" y="500" type="line"/>
      <point x="100" y="0" type="line"/>
      <point x="0" y="0" type="line"/>
      <point x="0" y="700" type="line"/>
      <point x="150" y="700" type="line"/>
      <point x="150" y="600" type="line"/>
      <point x="200" y="600" type="line"/>
      <point x="200" y="500" type="line"/>
      <point x="250" y="500" type="line"/>
      <point x="250" y="400" type="line"/>
      <point x="300" y="400" type="line"/>
      <point x="300" y="300" type="line"/>
      <point x="350" y="300" type="line"/>
      <point x="350" y="200" type="line"/>
    </contour>
  </outline>
</glyph>
<glyph name="O" format="2">
  <advance width="650"/>
  <unicode hex="004F"/>
  <outline>
    <contour>
      <point x="200" y="600" type="line"/>
      <point x="200" y="550" type="line"/>
      <point x="150" y="550" type="line"/>
      <point x="150" y="500" type="line"/>
      <point x="100" y="500" type="line"/>
      <point x="100" y="200" type="line"/>
      <point x="150" y="200" type="line"/>
      <point x="150" y="150" type="line"/>
      <point x="200" y="150" type="line"/>
      <point x="200" y="100" type="line"/>
      <point x="400" y="100" type="line"/>
      <point x="400" y="150" type="line"/>
      <point x="450" y="150" type="line"/>
      <point x="450" y="200" type="line"/>
      <point x="500" y="200" type="line"/>
      <point x="500" y="500" type="line"/>
      <point x="450" y="500" type="line"/>
      <point x="450" y="550" type="line"/>
      <point x="400" y="550" type="line"/>
      <point x="400" y="600" type="line"/>
    </contour>
    <contour>
      <point x="150" y="700" type="line"/>
      <point x="450" y="700" type="line"/>
      <point x="450" y="650" type="line"/>
      <point x="500" y="650" type="line"/>
      <point x="500" y="600" type="line"/>
      <point x="550" y="600" type="line"/>
      <point x="550" y="550" type="line"/>
      <point x="600" y="550" type="line"/>
      <point x="600" y="150" type="line"/>
      <point x="550" y="150" type="line"/>
      <point x="550" y="100" type="line"/>
      <point x="500" y="100" type="line"/>
      <point x="500" y="50" type="line"/>
      <point x="450" y="50" type="line"/>
      <point x="450" y="0" type="line"/>
      <point x="150" y="0" type="line"/>
      <point x="150" y="50" type="line"/>
      <point x="100" y="50" type="line"/>
      <point x="100" y="100" type="line"/>
      <point x="50" y="100" type="line"/>
      <point x="50" y="150" type="line"/>
      <point x="0" y="150" type="line"/>
      <point x="0" y="550" type="line"/>
      <point x="50" y="550" type="line"/>
      <point x="50" y="600" type="line"/>
      <point x="100" y="600" type="line"/>
      <point x="100" y="650" type="line"/>
      <point x="150" y="650" type="line"/>
    </contour>
  </outline>
</glyph>
<glyph name="R" format="2">
  <advance width="600"/>
  <unicode hex="0052"/>
  <outline>
    <contour>
      <point x="100" y="600" type="line"/>
      <point x="100" y="400" type="line"/>
      <point x="400" y="400" type="line"/>
      <point x="400" y="450" type="line"/>
      <point x="450" y="450" type="line"/>
      <point x="450" y="550" type="line"/>
      <point x="400" y="550" type="line"/>
      <point x="400" y="600" type="line"/>
    </contour>
    <contour>
      <point x="0" y="700" type="line"/>
      <point x="450" y="700" type="line"/>
      <point x="450" y="650" type="line"/>
      <point x="500" y="650" type="line"/>
      <point x="500" y="600" type="line"/>
      <point x="550" y="600" type="line"/>
      <point x="550" y="400" type="line"/>
      <point x="500" y="400" type="line"/>
      <point x="500" y="350" type="line"/>
      <point x="450" y="350" type="line"/>
      <point x="450" y="300" type="line"/>
      <point x="500" y="300" type="line"/>
      <point x="500" y="250" type="line"/>
      <point x="550" y="250" type="line"/>
      <point x="550" y="0" type="line"/>
      <point x="450" y="0" type="line"/>
      <point x="450" y="200" type="line"/>
      <point x="400" y="200" type="line"/>
      <point x="400" y="250" type="line"/>
      <point x="350" y="250" type="line"/>
      <point x="350" y="300" type="line"/>
      <point x="100" y="300" type="line"/>
      <point x="100" y="0" type="line"/>
      <point x="0" y="0" type="line"/>
    </contour>
  </outline>
</glyph>
<glyph name="S" format="2">
  <advance width="600"/>
  <unicode hex="0053"/>
  <outline>
    <contour>
      <point x="150" y="600" type="line"/>
      <point x="400" y="600" type="line"/>
      <point x="400" y="550" type="line"/>
      <point x="450" y="550" type="line"/>
      <point x="450" y="500" type="line"/>
      <point x="550" y="500" type="line"/>
      <point x="550" y="600" type="line"/>
      <point x="500" y="600" type="line"/>
      <point x="500" y="650" type="line"/>
      <point x="450" y="650" type="line"/>
      <point x="450" y="700" type="line"/>
      <point x="100" y="700" type="line"/>
      <point x="100" y="650" type="line"/>
      <point x="50" y="650" type="line"/>
      <point x="50" y="600" type="line"/>
      <point x="0" y="600" type="line"/>
      <point x="0" y="400" type="line"/>
      <point x="50" y="400" type="line"/>
      <point x="50" y="350" type="line"/>
      <point x="150" y="350" type="line"/>
      <point x="150" y="300" type="line"/>
      <point x="400" y="300" type="line"/>
      <point x="400" y="250" type="line"/>
      <point x="450" y="250" type="line"/>
      <point x="450" y="150" type="line"/>
      <point x="400" y="150" type="line"/>
      <point x="400" y="100" type="line"/>
      <point x="150" y="100" type="line"/>
      <point x="150" y="150" type="line"/>
      <point x="100" y="150" type="line"/>
      <point x="100" y="200" type="line"/>
      <point x="0" y="200" type="line"/>
      <point x="0" y="100" type="line"/>
      <point x="50" y="100" type="line"/>
      <point x="50" y="50" type="line"/>
      <point x="100" y="50" type="line"/>
      <point x="100" y="0" type="line"/>
      <point x="450" y="0" type="line"/>
      <point x="450" y="50" type="line"/>
      <point x="500" y="50" type="line"/>
      <point x="500" y="100" type="line"/>
      <point x="550" y="100" type="line"/>
      <point x="550" y="300" type="line"/>
      <point x="500" y="300" type="line"/>
      <point x="500" y="350" type="line"/>
      <point x="400" y="350" type="line"/>
      <point x="400" y="400" type="line"/>
      <point x="150" y="400" type="line"/>
      <point x="150" y="450" type="line"/>
      <point x="100" y="450" type="line"/>
      <point x="100" y="550" type="line"/>
      <point x="150" y="550" type="line"/>
    </contour>
  </outline>
</glyph>
<glyph name="T" format="2">
  <advance width="550"/>
  <unicode hex="0054"/>
  <outline>
    <contour>
      <point x="300" y="600" type="line"/>
      <point x="300" y="0" type="line"/>
      <point x="200" y="0" type="line"/>
      <point x="200" y="600" type="line"/>
      <point x="0" y="600" type="line"/>
      <point x="0" y="700" type="line"/>
      <point x="500" y="700" type="line"/>
      <point x="500" y="600" type="line"/>
    </contour>
  </outline>
</glyph>
<glyph name="U" format="2">
  <advance width="550"/>
  <unicode hex="0055"/>
  <outline>
    <contour>
      <point x="150" y="100" type="line"/>
      <point x="350" y="100" type="line"/>
      <point x="350" y="150" type="line"/>
      <point x="400" y="150" type="line"/>
      <point x="400" y="700" type="line"/>
      <point x="500" y="700" type="line"/>
      <point x="500" y="100" type="line"/>
      <point x="450" y="100" type="line"/>
      <point x="450" y="50" type="line"/>
      <point x="400" y="50" type="line"/>
      <point x="400" y="0" type="line"/>
      <point x="100" y="0" type="line"/>
      <point x="100" y="50" type="line"/>
      <point x="50" y="50" type="line"/>
      <point x="50" y="100" type="line"/>
      <point x="0" y="100" type="line"/>
      <point x="0" y="700" type="line"/>
      <point x="100" y="700" type="line"/>
      <point x="100" y="150" type="line"/>
      <point x="150" y="150" type="line"/>
    </contour>
  </outline>
</glyph>
<glyph name="V" format="2">
  <advance width="600"/>
  <unicode hex="0056"/>
  <outline>
    <contour>
      <point x="300" y="150" type="line"/>
      <point x="300" y="250" type="line"/>
      <point x="350" y="250" type="line"/>
      <point x="350" y="400" type="line"/>
      <point x="400" y="400" type="line"/>
      <point x="400" y="550" type="line"/>
      <point x="450" y="550" type="line"/>
      <point x="450" y="700" type="line"/>
      <point x="550" y="700" type="line"/>
      <point x="550" y="550" type="line"/>
      <point x="500" y="550" type="line"/>
      <point x="500" y="400" type="line"/>
      <point x="450" y="400" type="line"/>
      <point x="450" y="250" type="line"/>
      <point x="400" y="250" type="line"/>
      <point x="400" y="100" type="line"/>
      <point x="350" y="100" type="line"/>
      <point x="350" y="0" type="line"/>
      <point x="200" y="0" type="line"/>
      <point x="200" y="100" type="line"/>
      <point x="150" y="100" type="line"/>
      <point x="150" y="250" type="line"/>
      <point x="100" y="250" type="line"/>
      <point x="100" y="400" type="line"/>
      <point x="50" y="400" type="line"/>
      <point x="50" y="550" type="line"/>
      <point x="0" y="550" type="line"/>
      <point x="0" y="700" type="line"/>
      <point x="100" y="700" type="line"/>
      <point x="100" y="550" type="line"/>
      <point x="150" y="550" type="line"/>
      <point x="150" y="400" type="line"/>
      <point x="200" y="400" type="line"/>
      <point x="200" y="250" type="line"/>
      <point x="250" y="250" type="line"/>
      <point x="250" y="150" type="line"/>
    </contour>
  </outline>
</glyph>
<glyph name="W" format="2">
  <advance width="900"/>
  <unicode hex="0057"/>
  <outline>
    <contour>
      <point x="350" y="700" type="line"/>
      <point x="500" y="700" type="line"/>
      <point x="500" y="500" type="line"/>
      <point x="550" y="500" type="line"/>
      <point x="550" y="300" type="line"/>
      <point x="600" y="300" type="line"/>
      <point x="600" y="150" type="line"/>
      <point x="650" y="150" type="line"/>
      <point x="650" y="300" type="line"/>
      <point x="700" y="300" type="line"/>
      <point x="700" y="500" type="line"/>
      <point x="750" y="500" type="line"/>
      <point x="750" y="700" type="line"/>
      <point x="850" y="700" type="line"/>
      <point x="850" y="500" type="line"/>
      <point x="800" y="500" type="line"/>
      <point x="800" y="300" type="line"/>
      <point x="750" y="300" type="line"/>
      <point x="750" y="100" type="line"/>
      <point x="700" y="100" type="line"/>
      <point x="700" y="0" type="line"/>
      <point x="550" y="0" type="line"/>
      <point x="550" y="100" type="line"/>
      <point x="500" y="100" type="line"/>
      <point x="500" y="300" type="line"/>
      <point x="450" y="300" type="line"/>
      <point x="450" y="500" type="line"/>
      <point x="400" y="500" type="line"/>
      <point x="400" y="300" type="line"/>
      <point x="350" y="300" type="line"/>
      <point x="350" y="100" type="line"/>
      <point x="300" y="100" type="line"/>
      <point x="300" y="0" type="line"/>
      <point x="150" y="0" type="line"/>
      <point x="150" y="100" type="line"/>
      <point x="100" y="100" type="line"/>
      <point x="100" y="300" type="line"/>
      <point x="50" y="300" type="line"/>
      <point x="50" y="500" type="line"/>
      <point x="0" y="500" type="line"/>
      <point x="0" y="700" type="line"/>
      <point x="100" y="700" type="line"/>
      <point x="100" y="500" type="line"/>
      <point x="150" y="500" type="line"/>
      <point x="150" y="300" type="line"/>
      <point x="200" y="300" type="line"/>
      <point x="200" y="150" type="line"/>
      <point x="250" y="150" type="line"/>
      <point x="250" y="300" type="line"/>
      <point x="300" y="300" type="line"/>
      <point x="300" y="500" type="line"/>
      <point x="350" y="500" type="line"/>
    </contour>
  </outline>
</glyph>
<glyph name="X" format="2">
  <advance width="600"/>
  <unicode hex="0058"/>
  <outline>
    <contour>
      <point x="550" y="0" type="line"/>
      <point x="550" y="150" type="line"/>
      <point x="500" y="150" type="line"/>
      <point x="500" y="200" type="line"/>
      <point x="450" y="200" type="line"/>
      <point x="450" y="250" type="line"/>
      <point x="400" y="250" type="line"/>
      <point x="400" y="300" type="line"/>
      <point x="350" y="300" type="line"/>
      <point x="350" y="400" type="line"/>
      <point x="400" y="400" type="line"/>
      <point x="400" y="450" type="line"/>
      <point x="450" y="450" type="line"/>
      <point x="450" y="500" type="line"/>
      <point x="500" y="500" type="line"/>
      <point x="500" y="550" type="line"/>
      <point x="550" y="550" type="line"/>
      <point x="550" y="700" type="line"/>
      <point x="450" y="700" type="line"/>
      <point x="450" y="600" type="line"/>
      <point x="400" y="600" type="line"/>
      <point x="400" y="550" type="line"/>
      <point x="350" y="550" type="line"/>
      <point x="350" y="500" type="line"/>
      <point x="300" y="500" type="line"/>
      <point x="300" y="450" type="line"/>
      <point x="250" y="450" type="line"/>
      <point x="250" y="500" type="line"/>
      <point x="200" y="500" type="line"/>
      <point x="200" y="550" type="line"/>
      <point x="150" y="550" type="line"/>
      <point x="150" y="600" type="line"/>
      <point x="100" y="600" type="line"/>
      <point x="100" y="700" type="line"/>
      <point x="0" y="700" type="line"/>
      <point x="0" y="550" type="line"/>
      <point x="50" y="550" type="line"/>
      <point x="50" y="500" type="line"/>
      <point x="100" y="500" type="line"/>
      <point x="100" y="450" type="line"/>
      <point x="150" y="450" type="line"/>
      <point x="150" y="400" type="line"/>
      <point x="200" y="400" type="line"/>
      <point x="200" y="300" type="line"/>
      <point x="150" y="300" type="line"/>
      <point x="150" y="250" type="line"/>
      <point x="100" y="250" type="line"/>
      <point x="100" y="200" type="line"/>
      <point x="50" y="200" type="line"/>
      <point x="50" y="150" type="line"/>
      <point x="0" y="150" type="line"/>
      <point x="0" y="0" type="line"/>
      <point x="100" y="0" type="line"/>
      <point x="100" y="100" type="line"/>
      <point x="150" y="100" type="line"/>
      <point x="150" y="150" type="line"/>
      <point x="200" y="150" type="line"/>
      <point x="200" y="200" type="line"/>
      <point x="250" y="200" type="line"/>
      <point x="250" y="250" type="line"/>
      <point x="300" y="250" type="line"/>
      <point x="300" y="200" type="line"/>
      <point x="350" y="200" type="line"/>
      <point x="350" y="150" type="line"/>
      <point x="400" y="150" type="line"/>
      <point x="400" y="100" type="line"/>
      <point x="450" y="100" type="line"/>
      <point x="450" y="0" type="line"/>
    </contour>
  </outline>
</glyph>
<glyph name="Y" format="2">
  <advance width="550"/>
  <unicode hex="0059"/>
  <outline>
    <contour>
      <point x="200" y="0" type="line"/>
      <point x="300" y="0" type="line"/>
      <point x="300" y="300" type="line"/>
      <point x="350" y="300" type="line"/>
      <point x="350" y="400" type="line"/>
      <point x="400" y="400" type="line"/>
      <point x="400" y="500" type="line"/>
      <point x="450" y="500" type="line"/>
      <point x="450" y="600" type="line"/>
      <point x="500" y="600" type="line"/>
      <point x="500" y="700" type="line"/>
      <point x="400" y="700" type="line"/>
      <point x="400" y="600" type="line"/>
      <point x="350" y="600" type="line"/>
      <point x="350" y="500" type="line"/>
      <point x="300" y="500" type="line"/>
      <point x="300" y="400" type="line"/>
      <point x="200" y="400" type="line"/>
      <point x="200" y="500" type="line"/>
      <point x="150" y="500" type="line"/>
      <point x="150" y="600" type="line"/>
      <point x="100" y="600" type="line"/>
      <point x="100" y="700" type="line"/>
      <point x="0" y="700" type="line"/>
      <point x="0" y="600" type="line"/>
      <point x="50" y="600" type="line"/>
      <point x="50" y="500" type="line"/>
      <point x="100" y="500" type="line"/>
      <point x="100" y="400" type="line"/>
      <point x="150" y="400" type="line"/>
      <point x="150" y="300" type="line"/>
      <point x="200" y="300" type="line"/>
    </contour>
  </outline>
</glyph>
<glyph name="bracketleft" format="2">
  <advance width="250"/>
  <unicode hex="005B"/>
  <outline>
    <contour>
      <point x="0" y="800" type="line"/>
      <point x="200" y="800" type="line"/>
      <point x="200" y="700" type="line"/>
      <point x="100" y="700" type="line"/>
      <point x="100" y="0" type="line"/>
      <point x="200" y="0" type="line"/>
      <point x="200" y="-100" type="line"/>
      <point x="0" y="-100" type="line"/>
    </contour>
  </outline>
</glyph>
<glyph name="backslash" format="2">
  <advance width="500"/>
  <unicode hex="005C"/>
  <outline>
    <contour>
      <point x="450" y="100" type="line"/>
      <point x="450" y="0" type="line"/>
      <point x="350" y="0" type="line"/>
      <point x="350" y="100" type="line"/>
      <point x="300" y="100" type="line"/>
      <point x="300" y="200" type="line"/>
      <point x="250" y="200" type="line"/>
      <point x="250" y="300" type="line"/>
      <point x="200" y="300" type="line"/>
      <point x="200" y="400" type="line"/>
      <point x="150" y="400" type="line"/>
      <point x="150" y="500" type="line"/>
      <point x="100" y="500" type="line"/>
      <point x="100" y="600" type="line"/>
      <point x="50" y="600" type="line"/>
      <point x="50" y="700" type="line"/>
      <point x="0" y="700" type="line"/>
      <point x="0" y="800" type="line"/>
      <point x="100" y="800" type="line"/>
      <point x="100" y="700" type="line"/>
      <point x="150" y="700" type="line"/>
      <point x="150" y="600" type="line"/>
      <point x="200" y="600" type="line"/>
      <point x="200" y="500" type="line"/>
      <point x="250" y="500" type="line"/>
      <point x="250" y="400" type="line"/>
      <point x="300" y="400" type="line"/>
      <point x="300" y="300" type="line"/>
      <point x="350" y="300" type="line"/>
      <point x="350" y="200" type="line"/>
      <point x="400" y="200" type="line"/>
      <point x="400" y="100" type="line"/>
    </contour>
  </outline>
</glyph>
<glyph name="asciicircum" format="2">
  <advance width="350"/>
  <unicode hex="005E"/>
  <outline>
    <contour>
      <point x="250" y="650" type="line"/>
      <point x="250" y="700" type="line"/>
      <point x="50" y="700" type="line"/>
      <point x="50" y="650" type="line"/>
      <point x="0" y="650" type="line"/>
      <point x="0" y="600" type="line"/>
      <point x="100" y="600" type="line"/>
      <point x="100" y="650" type="line"/>
      <point x="200" y="650" type="line"/>
      <point x="200" y="600" type="line"/>
      <point x="300" y="600" type="line"/>
      <point x="300" y="650" type="line"/>
    </contour>
  </outline>
</glyph>
<glyph name="underscore" format="2">
  <advance width="550"/>
  <unicode hex="005F"/>
  <outline>
    <contour>
      <point x="0" y="50" type="line"/>
      <point x="500" y="50" type="line"/>
      <point x="500" y="0" type="line"/>
      <point x="0" y="0" type="line"/>
    </contour>
  </outline>
</glyph>
<glyph name="b" format="2">
  <advance width="500"/>
  <unicode hex="0062"/>
  <outline>
    <contour>
      <point x="300" y="100" type="line"/>
      <point x="300" y="150" type="line"/>
      <point x="350" y="150" type="line"/>
      <point x="350" y="350" type="line"/>
      <point x="300" y="350" type="line"/>
      <point x="300" y="400" type="line"/>
      <point x="150" y="400" type="line"/>
      <point x="150" y="350" type="line"/>
      <point x="100" y="350" type="line"/>
      <point x="100" y="150" type="line"/>
      <point x="150" y="150" type="line"/>
      <point x="150" y="100" type="line"/>
    </contour>
    <contour>
      <point x="100" y="50" type="line"/>
      <point x="100" y="0" type="line"/>
      <point x="0" y="0" type="line"/>
      <point x="0" y="700" type="line"/>
      <point x="100" y="700" type="line"/>
      <point x="100" y="450" type="line"/>
      <point x="150" y="450" type="line"/>
      <point x="150" y="500" type="line"/>
      <point x="350" y="500" type="line"/>
      <point x="350" y="450" type="line"/>
      <point x="400" y="450" type="line"/>
      <point x="400" y="400" type="line"/>
      <point x="450" y="400" type="line"/>
      <point x="450" y="100" type="line"/>
      <point x="400" y="100" type="line"/>
      <point x="400" y="50" type="line"/>
      <point x="350" y="50" type="line"/>
      <point x="350" y="0" type="line"/>
      <point x="150" y="0" type="line"/>
      <point x="150" y="50" type="line"/>
    </contour>
  </outline>
</glyph>
<glyph name="c" format="2">
  <advance width="500"/>
  <unicode hex="0063"/>
  <outline>
    <contour>
      <point x="350" y="300" type="line"/>
      <point x="450" y="300" type="line"/>
      <point x="450" y="400" type="line"/>
      <point x="400" y="400" type="line"/>
      <point x="400" y="450" type="line"/>
      <point x="350" y="450" type="line"/>
      <point x="350" y="500" type="line"/>
      <point x="100" y="500" type="line"/>
      <point x="100" y="450" type="line"/>
      <point x="50" y="450" type="line"/>
      <point x="50" y="400" type="line"/>
      <point x="0" y="400" type="line"/>
      <point x="0" y="100" type="line"/>
      <point x="50" y="100" type="line"/>
      <point x="50" y="50" type="line"/>
      <point x="100" y="50" type="line"/>
      <point x="100" y="0" type="line"/>
      <point x="350" y="0" type="line"/>
      <point x="350" y="50" type="line"/>
      <point x="400" y="50" type="line"/>
      <point x="400" y="100" type="line"/>
      <point x="450" y="100" type="line"/>
      <point x="450" y="200" type="line"/>
      <point x="350" y="200" type="line"/>
      <point x="350" y="150" type="line"/>
      <point x="300" y="150" type="line"/>
      <point x="300" y="100" type="line"/>
      <point x="150" y="100" type="line"/>
      <point x="150" y="150" type="line"/>
      <point x="100" y="150" type="line"/>
      <point x="100" y="350" type="line"/>
      <point x="150" y="350" type="line"/>
      <point x="150" y="400" type="line"/>
      <point x="300" y="400" type="line"/>
      <point x="300" y="350" type="line"/>
      <point x="350" y="350" type="line"/>
    </contour>
  </outline>
</glyph>
<glyph name="d" format="2">
  <advance width="500"/>
  <unicode hex="0064"/>
  <outline>
    <contour>
      <point x="150" y="150" type="line"/>
      <point x="100" y="150" type="line"/>
      <point x="100" y="350" type="line"/>
      <point x="150" y="350" type="line"/>
      <point x="150" y="400" type="line"/>
      <point x="300" y="400" type="line"/>
      <point x="300" y="350" type="line"/>
      <point x="350" y="350" type="line"/>
      <point x="350" y="150" type="line"/>
      <point x="300" y="150" type="line"/>
      <point x="300" y="100" type="line"/>
      <point x="150" y="100" type="line"/>
    </contour>
    <contour>
      <point x="350" y="0" type="line"/>
      <point x="450" y="0" type="line"/>
      <point x="450" y="700" type="line"/>
      <point x="350" y="700" type="line"/>
      <point x="350" y="450" type="line"/>
      <point x="300" y="450" type="line"/>
      <point x="300" y="500" type="line"/>
      <point x="100" y="500" type="line"/>
      <point x="100" y="450" type="line"/>
      <point x="50" y="450" type="line"/>
      <point x="50" y="400" type="line"/>
      <point x="0" y="400" type="line"/>
      <point x="0" y="100" type="line"/>
      <point x="50" y="100" type="line"/>
      <point x="50" y="50" type="line"/>
      <point x="100" y="50" type="line"/>
      <point x="100" y="0" type="line"/>
      <point x="300" y="0" type="line"/>
      <point x="300" y="50" type="line"/>
      <point x="350" y="50" type="line"/>
    </contour>
  </outline>
</glyph>
<glyph name="f" format="2">
  <advance width="350"/>
  <unicode hex="0066"/>
  <outline>
    <contour>
      <point x="300" y="700" type="line"/>
      <point x="150" y="700" type="line"/>
      <point x="150" y="650" type="line"/>
      <point x="100" y="650" type="line"/>
      <point x="100" y="500" type="line"/>
      <point x="0" y="500" type="line"/>
      <point x="0" y="400" type="line"/>
      <point x="100" y="400" type="line"/>
      <point x="100" y="0" type="line"/>
      <point x="200" y="0" type="line"/>
      <point x="200" y="400" type="line"/>
      <point x="300" y="400" type="line"/>
      <point x="300" y="500" type="line"/>
      <point x="200" y="500" type="line"/>
      <point x="200" y="600" type="line"/>
      <point x="300" y="600" type="line"/>
    </contour>
  </outline>
</glyph>
<glyph name="h" format="2">
  <advance width="500"/>
  <unicode hex="0068"/>
  <outline>
    <contour>
      <point x="150" y="400" type="line"/>
      <point x="300" y="400" type="line"/>
      <point x="300" y="350" type="line"/>
      <point x="350" y="350" type="line"/>
      <point x="350" y="0" type="line"/>
      <point x="450" y="0" type="line"/>
      <point x="450" y="400" type="line"/>
      <point x="400" y="400" type="line"/>
      <point x="400" y="450" type="line"/>
      <point x="350" y="450" type="line"/>
      <point x="350" y="500" type="line"/>
      <point x="150" y="500" type="line"/>
      <point x="150" y="450" type="line"/>
      <point x="100" y="450" type="line"/>
      <point x="100" y="700" type="line"/>
      <point x="0" y="700" type="line"/>
      <point x="0" y="0" type="line"/>
      <point x="100" y="0" type="line"/>
      <point x="100" y="350" type="line"/>
      <point x="150" y="350" type="line"/>
    </contour>
  </outline>
</glyph>
<glyph name="i" format="2">
  <advance width="150"/>
  <unicode hex="0069"/>
  <outline>
    <contour>
      <point x="0" y="-1" type="line"/>
      <point x="0" y="500" type="line"/>
      <point x="100" y="500" type="line"/>
      <point x="100" y="-1" type="line"/>
    </contour>
    <contour>
      <point x="0" y="650" type="line"/>
      <point x="100" y="650" type="line"/>
      <point x="100" y="550" type="line"/>
      <point x="0" y="550" type="line"/>
    </contour>
  </outline>
  <guideline angle="0" x="0" y="500"/>
</glyph>
<glyph name="j" format="2">
  <advance width="250"/>
  <unicode hex="006A"/>
  <outline>
    <contour>
      <point x="100" y="-100" type="line"/>
      <point x="0" y="-100" type="line"/>
      <point x="0" y="-200" type="line"/>
      <point x="150" y="-200" type="line"/>
      <point x="150" y="-150" type="line"/>
      <point x="200" y="-150" type="line"/>
      <point x="200" y="500" type="line"/>
      <point x="100" y="500" type="line"/>
    </contour>
    <contour>
      <point x="100" y="650" type="line"/>
      <point x="200" y="650" type="line"/>
      <point x="200" y="550" type="line"/>
      <point x="100" y="550" type="line"/>
    </contour>
  </outline>
</glyph>
<glyph name="k" format="2">
  <advance width="500"/>
  <unicode hex="006B"/>
  <outline>
    <contour>
      <point x="250" y="300" type="line"/>
      <point x="250" y="200" type="line"/>
      <point x="300" y="200" type="line"/>
      <point x="300" y="150" type="line"/>
      <point x="350" y="150" type="line"/>
      <point x="350" y="100" type="line"/>
      <point x="400" y="100" type="line"/>
      <point x="400" y="50" type="line"/>
      <point x="450" y="50" type="line"/>
      <point x="450" y="0" type="line"/>
      <point x="300" y="0" type="line"/>
      <point x="300" y="50" type="line"/>
      <point x="250" y="50" type="line"/>
      <point x="250" y="100" type="line"/>
      <point x="200" y="100" type="line"/>
      <point x="200" y="150" type="line"/>
      <point x="150" y="150" type="line"/>
      <point x="150" y="200" type="line"/>
      <point x="100" y="200" type="line"/>
      <point x="100" y="0" type="line"/>
      <point x="0" y="0" type="line"/>
      <point x="0" y="700" type="line"/>
      <point x="100" y="700" type="line"/>
      <point x="100" y="300" type="line"/>
      <point x="150" y="300" type="line"/>
      <point x="150" y="350" type="line"/>
      <point x="200" y="350" type="line"/>
      <point x="200" y="400" type="line"/>
      <point x="250" y="400" type="line"/>
      <point x="250" y="450" type="line"/>
      <point x="300" y="450" type="line"/>
      <point x="300" y="500" type="line"/>
      <point x="450" y="500" type="line"/>
      <point x="450" y="450" type="line"/>
      <point x="400" y="450" type="line"/>
      <point x="400" y="400" type="line"/>
      <point x="350" y="400" type="line"/>
      <point x="350" y="350" type="line"/>
      <point x="300" y="350" type="line"/>
      <point x="300" y="300" type="line"/>
    </contour>
  </outline>
</glyph>
<glyph name="l" format="2">
  <advance width="150"/>
  <unicode hex="006C"/>
  <outline>
    <contour>
      <point x="0" y="700" type="line"/>
      <point x="100" y="700" type="line"/>
      <point x="100" y="0" type="line"/>
      <point x="0" y="0" type="line"/>
    </contour>
  </outline>
</glyph>
<glyph name="m" format="2">
  <advance width="750"/>
  <unicode hex="006D"/>
  <outline>
    <contour>
      <point x="600" y="350" type="line"/>
      <point x="600" y="0" type="line"/>
      <point x="700" y="0" type="line"/>
      <point x="700" y="400" type="line"/>
      <point x="650" y="400" type="line"/>
      <point x="650" y="450" type="line"/>
      <point x="600" y="450" type="line"/>
      <point x="600" y="500" type="line"/>
      <point x="400" y="500" type="line"/>
      <point x="400" y="450" type="line"/>
      <point x="300" y="450" type="line"/>
      <point x="300" y="500" type="line"/>
      <point x="150" y="500" type="line"/>
      <point x="150" y="450" type="line"/>
      <point x="100" y="450" type="line"/>
      <point x="100" y="500" type="line"/>
      <point x="0" y="500" type="line"/>
      <point x="0" y="0" type="line"/>
      <point x="100" y="0" type="line"/>
      <point x="100" y="350" type="line"/>
      <point x="150" y="350" type="line"/>
      <point x="150" y="400" type="line"/>
      <point x="250" y="400" type="line"/>
      <point x="250" y="350" type="line"/>
      <point x="300" y="350" type="line"/>
      <point x="300" y="0" type="line"/>
      <point x="400" y="0" type="line"/>
      <point x="400" y="350" type="line"/>
      <point x="450" y="350" type="line"/>
      <point x="450" y="400" type="line"/>
      <point x="550" y="400" type="line"/>
      <point x="550" y="350" type="line"/>
    </contour>
  </outline>
</glyph>
<glyph name="n" format="2">
  <advance width="450"/>
  <unicode hex="006E"/>
  <outline>
    <contour>
      <point x="300" y="350" type="line"/>
      <point x="300" y="0" type="line"/>
      <point x="400" y="0" type="line"/>
      <point x="400" y="400" type="line"/>
      <point x="350" y="400" type="line"/>
      <point x="350" y="450" type="line"/>
      <point x="300" y="450" type="line"/>
      <point x="300" y="500" type="line"/>
      <point x="150" y="500" type="line"/>
      <point x="150" y="450" type="line"/>
      <point x="100" y="450" type="line"/>
      <point x="100" y="500" type="line"/>
      <point x="0" y="500" type="line"/>
      <point x="0" y="0" type="line"/>
      <point x="100" y="0" type="line"/>
      <point x="100" y="350" type="line"/>
      <point x="150" y="350" type="line"/>
      <point x="150" y="400" type="line"/>
      <point x="250" y="400" type="line"/>
      <point x="250" y="350" type="line"/>
    </contour>
  </outline>
</glyph>
<glyph name="u" format="2">
  <advance width="450"/>
  <unicode hex="0075"/>
  <outline>
    <contour>
      <point x="250" y="100" type="line"/>
      <point x="250" y="150" type="line"/>
      <point x="300" y="150" type="line"/>
      <point x="300" y="500" type="line"/>
      <point x="400" y="500" type="line"/>
      <point x="400" y="0" type="line"/>
      <point x="300" y="0" type="line"/>
      <point x="300" y="50" type="line"/>
      <point x="250" y="50" type="line"/>
      <point x="250" y="0" type="line"/>
      <point x="100" y="0" type="line"/>
      <point x="100" y="50" type="line"/>
      <point x="50" y="50" type="line"/>
      <point x="50" y="100" type="line"/>
      <point x="0" y="100" type="line"/>
      <point x="0" y="500" type="line"/>
      <point x="100" y="500" type="line"/>
      <point x="100" y="150" type="line"/>
      <point x="150" y="150" type="line"/>
      <point x="150" y="100" type="line"/>
    </contour>
  </outline>
</glyph>
<glyph name="v" format="2">
  <advance width="550"/>
  <unicode hex="0076"/>
  <outline>
    <contour>
      <point x="200" y="200" type="line"/>
      <point x="300" y="200" type="line"/>
      <point x="300" y="300" type="line"/>
      <point x="350" y="300" type="line"/>
      <point x="350" y="400" type="line"/>
      <point x="400" y="400" type="line"/>
      <point x="400" y="500" type="line"/>
      <point x="500" y="500" type="line"/>
      <point x="500" y="400" type="line"/>
      <point x="450" y="400" type="line"/>
      <point x="450" y="300" type="line"/>
      <point x="400" y="300" type="line"/>
      <point x="400" y="200" type="line"/>
      <point x="350" y="200" type="line"/>
      <point x="350" y="100" type="line"/>
      <point x="300" y="100" type="line"/>
      <point x="300" y="0" type="line"/>
      <point x="200" y="0" type="line"/>
      <point x="200" y="100" type="line"/>
      <point x="150" y="100" type="line"/>
      <point x="150" y="200" type="line"/>
      <point x="100" y="200" type="line"/>
      <point x="100" y="300" type="line"/>
      <point x="50" y="300" type="line"/>
      <point x="50" y="400" type="line"/>
      <point x="0" y="400" type="line"/>
      <point x="0" y="500" type="line"/>
      <point x="100" y="500" type="line"/>
      <point x="100" y="400" type="line"/>
      <point x="150" y="400" type="line"/>
      <point x="150" y="300" type="line"/>
      <point x="200" y="300" type="line"/>
    </contour>
  </outline>
</glyph>
<glyph name="w" format="2">
  <advance width="700"/>
  <unicode hex="0077"/>
  <outline>
    <contour>
      <point x="250" y="500" type="line"/>
      <point x="400" y="500" type="line"/>
      <point x="400" y="350" type="line"/>
      <point x="450" y="350" type="line"/>
      <point x="450" y="150" type="line"/>
      <point x="500" y="150" type="line"/>
      <point x="500" y="350" type="line"/>
      <point x="550" y="350" type="line"/>
      <point x="550" y="500" type="line"/>
      <point x="650" y="500" type="line"/>
      <point x="650" y="350" type="line"/>
      <point x="600" y="350" type="line"/>
      <point x="600" y="150" type="line"/>
      <point x="550" y="150" type="line"/>
      <point x="550" y="0" type="line"/>
      <point x="400" y="0" type="line"/>
      <point x="400" y="150" type="line"/>
      <point x="350" y="150" type="line"/>
      <point x="350" y="350" type="line"/>
      <point x="300" y="350" type="line"/>
      <point x="300" y="150" type="line"/>
      <point x="250" y="150" type="line"/>
      <point x="250" y="0" type="line"/>
      <point x="100" y="0" type="line"/>
      <point x="100" y="150" type="line"/>
      <point x="50" y="150" type="line"/>
      <point x="50" y="350" type="line"/>
      <point x="0" y="350" type="line"/>
      <point x="0" y="500" type="line"/>
      <point x="100" y="500" type="line"/>
      <point x="100" y="350" type="line"/>
      <point x="150" y="350" type="line"/>
      <point x="150" y="150" type="line"/>
      <point x="200" y="150" type="line"/>
      <point x="200" y="350" type="line"/>
      <point x="250" y="350" type="line"/>
    </contour>
  </outline>
</glyph>
<glyph name="x" format="2">
  <advance width="550"/>
  <unicode hex="0078"/>
  <outline>
    <contour>
      <point x="300" y="350" type="line"/>
      <point x="300" y="400" type="line"/>
      <point x="350" y="400" type="line"/>
      <point x="350" y="450" type="line"/>
      <point x="400" y="450" type="line"/>
      <point x="400" y="500" type="line"/>
      <point x="500" y="500" type="line"/>
      <point x="500" y="400" type="line"/>
      <point x="450" y="400" type="line"/>
      <point x="450" y="350" type="line"/>
      <point x="400" y="350" type="line"/>
      <point x="400" y="300" type="line"/>
      <point x="350" y="300" type="line"/>
      <point x="350" y="250" type="line"/>
      <point x="300" y="250" type="line"/>
      <point x="300" y="200" type="line"/>
      <point x="400" y="200" type="line"/>
      <point x="400" y="150" type="line"/>
      <point x="450" y="150" type="line"/>
      <point x="450" y="100" type="line"/>
      <point x="500" y="100" type="line"/>
      <point x="500" y="0" type="line"/>
      <point x="400" y="0" type="line"/>
      <point x="400" y="50" type="line"/>
      <point x="350" y="50" type="line"/>
      <point x="350" y="100" type="line"/>
      <point x="300" y="100" type="line"/>
      <point x="300" y="150" type="line"/>
      <point x="200" y="150" type="line"/>
      <point x="200" y="100" type="line"/>
      <point x="150" y="100" type="line"/>
      <point x="150" y="50" type="line"/>
      <point x="100" y="50" type="line"/>
      <point x="100" y="0" type="line"/>
      <point x="0" y="0" type="line"/>
      <point x="0" y="100" type="line"/>
      <point x="50" y="100" type="line"/>
      <point x="50" y="150" type="line"/>
      <point x="100" y="150" type="line"/>
      <point x="100" y="200" type="line"/>
      <point x="150" y="200" type="line"/>
      <point x="150" y="250" type="line"/>
      <point x="200" y="250" type="line"/>
      <point x="200" y="300" type="line"/>
      <point x="100" y="300" type="line"/>
      <point x="100" y="350" type="line"/>
      <point x="50" y="350" type="line"/>
      <point x="50" y="400" type="line"/>
      <point x="0" y="400" type="line"/>
      <point x="0" y="500" type="line"/>
      <point x="100" y="500" type="line"/>
      <point x="100" y="450" type="line"/>
      <point x="150" y="450" type="line"/>
      <point x="150" y="400" type="line"/>
      <point x="200" y="400" type="line"/>
      <point x="200" y="350" type="line"/>
    </contour>
  </outline>
</glyph>
<glyph name="z" format="2">
  <advance width="450"/>
  <unicode hex="007A"/>
  <outline>
    <contour>
      <point x="150" y="100" type="line"/>
      <point x="400" y="100" type="line"/>
      <point x="400" y="0" type="line"/>
      <point x="0" y="0" type="line"/>
      <point x="0" y="150" type="line"/>
      <point x="50" y="150" type="line"/>
      <point x="50" y="200" type="line"/>
      <point x="100" y="200" type="line"/>
      <point x="100" y="250" type="line"/>
      <point x="150" y="250" type="line"/>
      <point x="150" y="300" type="line"/>
      <point x="200" y="300" type="line"/>
      <point x="200" y="350" type="line"/>
      <point x="250" y="350" type="line"/>
      <point x="250" y="400" type="line"/>
      <point x="0" y="400" type="line"/>
      <point x="0" y="500" type="line"/>
      <point x="400" y="500" type="line"/>
      <point x="400" y="350" type="line"/>
      <point x="350" y="350" type="line"/>
      <point x="350" y="300" type="line"/>
      <point x="300" y="300" type="line"/>
      <point x="300" y="250" type="line"/>
      <point x="250" y="250" type="line"/>
      <point x="250" y="200" type="line"/>
      <point x="200" y="200" type="line"/>
      <point x="200" y="150" type="line"/>
      <point x="150" y="150" type="line"/>
    </contour>
  </outline>
</glyph>
<glyph name="braceleft" format="2">
  <advance width="350"/>
  <unicode hex="007B"/>
  <outline>
    <contour>
      <point x="150" y="750" type="line"/>
      <point x="100" y="750" type="line"/>
      <point x="100" y="400" type="line"/>
      <point x="0" y="400" type="line"/>
      <point x="0" y="300" type="line"/>
      <point x="100" y="300" type="line"/>
      <point x="100" y="-50" type="line"/>
      <point x="150" y="-50" type="line"/>
      <point x="150" y="-100" type="line"/>
      <point x="300" y="-100" type="line"/>
      <point x="300" y="-50" type="line"/>
      <point x="200" y="-50" type="line"/>
      <point x="200" y="300" type="line"/>
      <point x="100" y="300" type="line"/>
      <point x="100" y="400" type="line"/>
      <point x="200" y="400" type="line"/>
      <point x="200" y="750" type="line"/>
      <point x="300" y="750" type="line"/>
      <point x="300" y="800" type="line"/>
      <point x="150" y="800" type="line"/>
    </contour>
  </outline>
</glyph>
<glyph name="bar" format="2">
  <advance width="100"/>
  <unicode hex="007C"/>
  <outline>
    <contour>
      <point x="0" y="800" type="line"/>
      <point x="50" y="800" type="line"/>
      <point x="50" y="-100" type="line"/>
      <point x="0" y="-100" type="line"/>
    </contour>
  </outline>
</glyph>
<glyph name="sterling" format="2">
  <advance width="550"/>
  <unicode hex="00A3"/>
  <outline>
    <contour>
      <point x="350" y="650" type="line"/>
      <point x="350" y="700" type="line"/>
      <point x="150" y="700" type="line"/>
      <point x="150" y="650" type="line"/>
      <point x="100" y="650" type="line"/>
      <point x="100" y="600" type="line"/>
      <point x="50" y="600" type="line"/>
      <point x="50" y="450" type="line"/>
      <point x="100" y="450" type="line"/>
      <point x="100" y="400" type="line"/>
      <point x="150" y="400" type="line"/>
      <point x="150" y="350" type="line"/>
      <point x="0" y="350" type="line"/>
      <point x="0" y="300" type="line"/>
      <point x="150" y="300" type="line"/>
      <point x="150" y="200" type="line"/>
      <point x="100" y="200" type="line"/>
      <point x="100" y="150" type="line"/>
      <point x="0" y="150" type="line"/>
      <point x="0" y="0" type="line"/>
      <point x="500" y="0" type="line"/>
      <point x="500" y="100" type="line"/>
      <point x="150" y="100" type="line"/>
      <point x="150" y="150" type="line"/>
      <point x="200" y="150" type="line"/>
      <point x="200" y="200" type="line"/>
      <point x="250" y="200" type="line"/>
      <point x="250" y="300" type="line"/>
      <point x="400" y="300" type="line"/>
      <point x="400" y="350" type="line"/>
      <point x="250" y="350" type="line"/>
      <point x="250" y="450" type="line"/>
      <point x="200" y="450" type="line"/>
      <point x="200" y="500" type="line"/>
      <point x="150" y="500" type="line"/>
      <point x="150" y="550" type="line"/>
      <point x="200" y="550" type="line"/>
      <point x="200" y="600" type="line"/>
      <point x="300" y="600" type="line"/>
      <point x="300" y="550" type="line"/>
      <point x="350" y="550" type="line"/>
      <point x="350" y="500" type="line"/>
      <point x="450" y="500" type="line"/>
      <point x="450" y="600" type="line"/>
      <point x="400" y="600" type="line"/>
      <point x="400" y="650" type="line"/>
    </contour>
  </outline>
</glyph>
<glyph name="yen" format="2">
  <advance width="550"/>
  <unicode hex="00A5"/>
  <outline>
    <contour>
      <point x="100" y="400" type="line"/>
      <point x="150" y="400" type="line"/>
      <point x="150" y="350" type="line"/>
      <point x="50" y="350" type="line"/>
      <point x="50" y="300" type="line"/>
      <point x="200" y="300" type="line"/>
      <point x="200" y="200" type="line"/>
      <point x="50" y="200" type="line"/>
      <point x="50" y="150" type="line"/>
      <point x="200" y="150" type="line"/>
      <point x="200" y="0" type="line"/>
      <point x="300" y="0" type="line"/>
      <point x="300" y="150" type="line"/>
      <point x="450" y="150" type="line"/>
      <point x="450" y="200" type="line"/>
      <point x="300" y="200" type="line"/>
      <point x="300" y="300" type="line"/>
      <point x="450" y="300" type="line"/>
      <point x="450" y="350" type="line"/>
      <point x="350" y="350" type="line"/>
      <point x="350" y="400" type="line"/>
      <point x="400" y="400" type="line"/>
      <point x="400" y="500" type="line"/>
      <point x="450" y="500" type="line"/>
      <point x="450" y="600" type="line"/>
      <point x="500" y="600" type="line"/>
      <point x="500" y="700" type="line"/>
      <point x="400" y="700" type="line"/>
      <point x="400" y="600" type="line"/>
      <point x="350" y="600" type="line"/>
      <point x="350" y="500" type="line"/>
      <point x="300" y="500" type="line"/>
      <point x="300" y="400" type="line"/>
      <point x="200" y="400" type="line"/>
      <point x="200" y="500" type="line"/>
      <point x="150" y="500" type="line"/>
      <point x="150" y="600" type="line"/>
      <point x="100" y="600" type="line"/>
      <point x="100" y="700" type="line"/>
      <point x="0" y="700" type="line"/>
      <point x="0" y="600" type="line"/>
      <point x="50" y="600" type="line"/>
      <point x="50" y="500" type="line"/>
      <point x="100" y="500" type="line"/>
    </contour>
  </outline>
</glyph>
<glyph name="tilde" format="2">
  <advance width="350"/>
  <unicode hex="02DC"/>
  <outline>
    <contour>
      <point x="150" y="400" type="line"/>
      <point x="150" y="350" type="line"/>
      <point x="250" y="350" type="line"/>
      <point x="250" y="400" type="line"/>
      <point x="300" y="400" type="line"/>
      <point x="300" y="350" type="line"/>
      <point x="250" y="350" type="line"/>
      <point x="250" y="300" type="line"/>
      <point x="150" y="300" type="line"/>
      <point x="150" y="350" type="line"/>
      <point x="50" y="350" type="line"/>
      <point x="50" y="300" type="line"/>
      <point x="0" y="300" type="line"/>
      <point x="0" y="350" type="line"/>
      <point x="50" y="350" type="line"/>
      <point x="50" y="400" type="line"/>
    </contour>
  </outline>
  <guideline angle="0" x="0" y="400"/>
</glyph>
<glyph name="quoteleft" format="2">
  <advance width="150"/>
  <unicode hex="2018"/>
  <outline>
    <contour>
      <point x="100" y="500" type="line"/>
      <point x="0" y="500" type="line"/>
      <point x="0" y="650" type="line"/>
      <point x="50" y="650" type="line"/>
      <point x="50" y="700" type="line"/>
      <point x="100" y="700" type="line"/>
      <point x="100" y="650" type="line"/>
      <point x="50" y="650" type="line"/>
      <point x="50" y="600" type="line"/>
      <point x="100" y="600" type="line"/>
    </contour>
  </outline>
</glyph>
<glyph name="quoteright" format="2">
  <advance width="150"/>
  <unicode hex="2019"/>
  <outline>
    <contour>
      <point x="0" y="700" type="line"/>
      <point x="100" y="700" type="line"/>
      <point x="100" y="550" type="line"/>
      <point x="50" y="550" type="line"/>
      <point x="50" y="500" type="line"/>
      <point x="0" y="500" type="line"/>
      <point x="0" y="550" type="line"/>
      <point x="50" y="550" type="line"/>
      <point x="50" y="600" type="line"/>
      <point x="0" y="600" type="line"/>
    </contour>
  </outline>
</glyph>
<glyph name="quotedblleft" format="2">
  <advance width="300"/>
  <unicode hex="201C"/>
  <outline>
    <contour>
      <point x="100" y="500" type="line"/>
      <point x="0" y="500" type="line"/>
      <point x="0" y="650" type="line"/>
      <point x="50" y="650" type="line"/>
      <point x="50" y="700" type="line"/>
      <point x="100" y="700" type="line"/>
      <point x="100" y="650" type="line"/>
      <point x="50" y="650" type="line"/>
      <point x="50" y="600" type="line"/>
      <point x="100" y="600" type="line"/>
    </contour>
    <contour>
      <point x="250" y="500" type="line"/>
      <point x="150" y="500" type="line"/>
      <point x="150" y="650" type="line"/>
      <point x="200" y="650" type="line"/>
      <point x="200" y="700" type="line"/>
      <point x="250" y="700" type="line"/>
      <point x="250" y="650" type="line"/>
      <point x="200" y="650" type="line"/>
      <point x="200" y="600" type="line"/>
      <point x="250" y="600" type="line"/>
    </contour>
  </outline>
</glyph>
<glyph name="quotedblright" format="2">
  <advance width="300"/>
  <unicode hex="201D"/>
  <outline>
    <contour>
      <point x="150" y="700" type="line"/>
      <point x="250" y="700" type="line"/>
      <point x="250" y="550" type="line"/>
      <point x="200" y="550" type="line"/>
      <point x="200" y="500" type="line"/>
      <point x="150" y="500" type="line"/>
      <point x="150" y="550" type="line"/>
      <point x="200" y="550" type="line"/>
      <point x="200" y="600" type="line"/>
      <point x="150" y="600" type="line"/>
    </contour>
    <contour>
      <point x="0" y="700" type="line"/>
      <point x="100" y="700" type="line"/>
      <point x="100" y="550" type="line"/>
      <point x="50" y="550" type="line"/>
      <point x="50" y="500" type="line"/>
      <point x="0" y="500" type="line"/>
      <point x="0" y="550" type="line"/>
      <point x="50" y="550" type="line"/>
      <point x="50" y="600" type="line"/>
      <point x="0" y="600" type="line"/>
    </contour>
  </outline>
</glyph>
